<svg width="96" height="80" viewBox="0 0 96 80" fill="none" xmlns="http://www.w3.org/2000/svg">
<path d="M4.23538 72.4747H3.51383L3.72769 72.0151L8.31774 61.5097L8.39946 61.313H8.82543L8.90715 61.5097L13.4972 72.0151L13.7111 72.4747H12.9895L12.9078 72.278L8.61158 62.4619L4.31535 72.278L4.23364 72.4747H4.23538Z" fill="#606161" style="fill:#606161;fill:color(display-p3 0.3765 0.3804 0.3804);fill-opacity:1;"/>
<path d="M13.984 72.6488H12.8748L12.7478 72.3441L8.61331 62.8953L4.47705 72.3476L4.35186 72.6488H3.2426L3.57121 71.942L8.15952 61.44L8.28471 61.1389H8.94192L9.06884 61.4435L13.6589 71.9455L13.9858 72.6488H13.984ZM13.106 72.3006H13.4398L13.3407 72.0883L8.71068 61.487H8.51595L8.47944 61.5776L3.88764 72.0865L3.7868 72.3024H4.12062L4.15713 72.2118L8.61331 62.0284L13.106 72.3006Z" fill="#606161" style="fill:#606161;fill:color(display-p3 0.3765 0.3804 0.3804);fill-opacity:1;"/>
<path d="M18.6471 72.1457V72.4747H17.9916V66.9931L14.5647 61.823L14.2379 61.3147H15.0255L15.1246 61.4627L18.322 66.3055L21.4533 61.4627L21.5524 61.3147H22.34L22.0131 61.823L18.6523 66.9931V72.1474L18.6471 72.1457Z" fill="#606161" style="fill:#606161;fill:color(display-p3 0.3765 0.3804 0.3804);fill-opacity:1;"/>
<path d="M18.8192 72.6488H17.816V67.0453L14.4187 61.9187L13.9162 61.1389H15.1142L15.2637 61.3634L18.315 65.9852L21.4533 61.1389H22.6512L22.1505 61.9153L18.8175 67.0435V72.6488H18.8192ZM18.1638 72.3006H18.4715V66.9408L22.0149 61.487H21.6393L21.5924 61.5567L18.3185 66.6205L14.9281 61.487H14.5543L14.709 61.7273L18.1638 66.9391V72.3006Z" fill="#606161" style="fill:#606161;fill:color(display-p3 0.3765 0.3804 0.3804);fill-opacity:1;"/>
<path d="M32.2208 61.313V61.9692H25.0071V66.5648H30.2857V67.2211H25.0071V71.8167H32.2208V72.473H24.3516V61.3112H32.2208V61.313Z" fill="#606161" style="fill:#606161;fill:color(display-p3 0.3765 0.3804 0.3804);fill-opacity:1;"/>
<path d="M32.3947 72.6488H24.1778V61.1389H32.3947V62.1433H25.181V66.3908H30.4596V67.3952H25.181V71.6426H32.3947V72.647V72.6488ZM24.5255 72.3006H32.0469V71.9925H24.8333V67.0488H30.1118V66.7406H24.8333V61.7969H32.0469V61.4888H24.5255V72.3024V72.3006Z" fill="#606161" style="fill:#606161;fill:color(display-p3 0.3765 0.3804 0.3804);fill-opacity:1;"/>
<path d="M41.8947 61.313H42.5502V71.8184H48.4529V72.4747H41.8947V61.313Z" fill="#606161" style="fill:#606161;fill:color(display-p3 0.3765 0.3804 0.3804);fill-opacity:1;"/>
<path d="M48.6268 72.6488H41.7208V61.1389H42.724V71.6444H48.6268V72.6488ZM42.0686 72.3006H48.279V71.9925H42.3763V61.487H42.0686V72.3006Z" fill="#606161" style="fill:#606161;fill:color(display-p3 0.3765 0.3804 0.3804);fill-opacity:1;"/>
<path d="M58.2885 61.313V61.9692H51.0748V66.5648H56.3534V67.2211H51.0748V71.8167H58.2885V72.473H50.4193V61.3112H58.2885V61.313Z" fill="#606161" style="fill:#606161;fill:color(display-p3 0.3765 0.3804 0.3804);fill-opacity:1;"/>
<path d="M58.4624 72.6488H50.2455V61.1389H58.4624V62.1433H51.2487V66.3908H56.5272V67.3952H51.2487V71.6426H58.4624V72.647V72.6488ZM50.5932 72.3006H58.1146V71.9925H50.901V67.0488H56.1795V66.7406H50.901V61.7969H58.1146V61.4888H50.5932V72.3024V72.3006Z" fill="#606161" style="fill:#606161;fill:color(display-p3 0.3765 0.3804 0.3804);fill-opacity:1;"/>
<path d="M60.1419 72.4747H59.4204L59.6342 72.0151L64.2243 61.5097L64.306 61.313H64.732L64.8137 61.5097L69.4037 72.0151L69.6176 72.4747H68.8961L68.8143 72.278L64.5181 62.4619L60.2219 72.278L60.1402 72.4747H60.1419Z" fill="#606161" style="fill:#606161;fill:color(display-p3 0.3765 0.3804 0.3804);fill-opacity:1;"/>
<path d="M69.8906 72.6488H68.7813L68.6544 72.3441L64.5199 62.8953L60.3836 72.3476L60.2584 72.6488H59.1491L59.4777 71.942L64.0661 61.44L64.1912 61.1389H64.8485L64.9754 61.4435L69.5654 71.9455L69.8923 72.6488H69.8906ZM69.0125 72.3006H69.3464L69.2473 72.0883L64.6172 61.487H64.4225L64.386 61.5776L59.7942 72.0865L59.6933 72.3024H60.0272L60.0637 72.2118L64.5199 62.0284L69.0125 72.3006Z" fill="#606161" style="fill:#606161;fill:color(display-p3 0.3765 0.3804 0.3804);fill-opacity:1;"/>
<path d="M77.5528 67.517C78.2309 68.283 78.9073 69.7939 79.5853 72.0482L79.7175 72.4747H79.029L78.9629 72.2449C78.4813 70.6904 78.0397 69.5415 77.6346 68.7982C77.2851 68.175 76.8157 67.6493 76.2245 67.2228H72.0604V72.4747H71.405V66.8938L71.4206 61.6576V61.3286H71.7492L76.3062 61.313C77.1147 61.313 77.831 61.548 78.4535 62.018C79.2185 62.6203 79.601 63.3758 79.601 64.2827C79.601 64.7527 79.481 65.2018 79.2393 65.6283C78.7803 66.4047 78.0814 66.9025 77.1408 67.1219C77.2834 67.242 77.419 67.3743 77.5511 67.5153L77.5528 67.517ZM76.3236 66.5648C76.9148 66.5648 77.4485 66.4064 77.9301 66.0896C78.6082 65.63 78.9473 65.0277 78.9473 64.2844C78.9473 63.7814 78.7716 63.3218 78.4222 62.9058C77.8971 62.2826 77.1929 61.9692 76.308 61.9692H72.0622V66.5822H74.0286L74.046 66.5666H76.3254L76.3236 66.5648Z" fill="#606161" style="fill:#606161;fill:color(display-p3 0.3765 0.3804 0.3804);fill-opacity:1;"/>
<path d="M79.9522 72.6488H78.8968L78.796 72.2937C78.3213 70.7618 77.8797 69.6129 77.4816 68.8818C77.1564 68.3021 76.7148 67.8008 76.1671 67.3969H72.2343V72.6488H71.2311V66.8938L71.2467 61.1546H71.7492L76.3062 61.1389C77.1512 61.1389 77.9075 61.3878 78.5595 61.8804C79.368 62.5176 79.7766 63.3253 79.7766 64.2844C79.7766 64.7823 79.6479 65.2645 79.3923 65.7153C78.9612 66.4447 78.3248 66.9461 77.4937 67.2072C77.5581 67.2681 77.6189 67.3325 77.6798 67.3986V67.4021C78.3839 68.1942 79.0603 69.6982 79.7522 71.9977L79.9522 72.6488ZM79.1594 72.3006H79.481L79.4184 72.0987C78.7508 69.8792 78.0796 68.377 77.4224 67.6337C77.2973 67.4979 77.1651 67.3708 77.0295 67.2559L76.7652 67.0314L77.1025 66.953C77.991 66.7459 78.6586 66.2706 79.0898 65.5395C79.3124 65.1444 79.4271 64.7196 79.4271 64.2827C79.4271 63.4228 79.0742 62.7265 78.3457 62.1537C77.7597 61.7116 77.0712 61.4853 76.3062 61.4853L71.5945 61.501V61.6559L71.5788 67.2211V72.2989H71.8866V67.047H76.2801L76.3253 67.0801C76.9339 67.5205 77.4242 68.0688 77.7841 68.7112C78.1927 69.4649 78.6447 70.6347 79.1263 72.1927L79.1576 72.3006H79.1594ZM74.0999 66.7563H71.8866V61.7951H76.3062C77.2416 61.7951 77.9979 62.1311 78.5543 62.7926C78.9299 63.24 79.1194 63.7413 79.1194 64.2844C79.1194 65.0869 78.7508 65.7432 78.0258 66.2341C77.5163 66.57 76.9443 66.7406 76.3219 66.7406H74.1155L74.0981 66.7563H74.0999ZM72.2343 66.4082H73.9556L73.9729 66.3925H76.3236C76.8765 66.3925 77.3859 66.2428 77.8345 65.9451C78.4656 65.5169 78.7734 64.9738 78.7734 64.2844C78.7734 63.8197 78.6152 63.4054 78.29 63.0172C77.7963 62.4288 77.1477 62.1433 76.308 62.1433H72.236V66.4082H72.2343Z" fill="#606161" style="fill:#606161;fill:color(display-p3 0.3765 0.3804 0.3804);fill-opacity:1;"/>
<path d="M82.8818 72.4747H82.2263V61.313H82.7184L82.8175 61.4435L89.753 71.1291L89.7686 61.642V61.313H90.4241V61.642L90.4085 72.1474V72.4764H89.9164L89.8191 72.3459L82.8836 62.6603V72.4764L82.8818 72.4747Z" fill="#606161" style="fill:#606161;fill:color(display-p3 0.3765 0.3804 0.3804);fill-opacity:1;"/>
<path d="M90.5806 72.6488H89.8278L89.6782 72.4468L83.0557 63.1999V72.6488H82.0525V61.1389H82.8053L82.9566 61.3391L89.5791 70.5877L89.5948 61.1371H90.598V61.6402L90.5823 72.6488H90.5806ZM90.0016 72.3006H90.2329V72.1457L90.2485 61.4853H89.9408V61.6402L89.9234 71.6687L82.6297 61.487H82.3985V72.3006H82.7062V62.1172L89.9999 72.3006H90.0016Z" fill="#606161" style="fill:#606161;fill:color(display-p3 0.3765 0.3804 0.3804);fill-opacity:1;"/>
<path d="M67.253 38.4081L51.6764 10.1051C50.5011 8.36956 48.8598 7.47133 46.8325 7.53052C44.8052 7.47133 43.1639 8.3713 41.9886 10.1051L26.6849 37.9137C26.5302 38.1957 26.7562 38.5352 27.0744 38.5003C27.9698 38.3994 28.8808 38.3576 29.811 38.3767C32.2782 38.3767 34.6358 38.704 36.8856 39.322C37.0595 39.3707 37.2438 39.2959 37.3342 39.1392C40.5455 33.5357 43.729 27.8765 46.8325 22.2016C49.9169 27.8434 53.0812 33.4695 56.2751 39.0417C56.3638 39.1966 56.5464 39.2715 56.7202 39.2262C58.4815 38.7667 60.3158 38.556 62.2214 38.5961C63.807 38.5961 65.3457 38.7336 66.841 38.9947C67.1678 39.0522 67.4147 38.7023 67.2548 38.4116L67.253 38.4081Z" fill="url(#paint0_linear_692_2777)" style=""/>
<path d="M75.4265 45.1396C75.044 44.2727 74.345 43.6077 73.4618 43.2648C62.5552 39.0452 51.5825 43.5834 46.9681 45.9908C42.3537 43.5834 31.381 39.0435 20.4744 43.2648C19.5912 43.606 18.894 44.2727 18.5098 45.1396C18.1255 46.0065 18.1029 46.9709 18.4454 47.8552C18.7862 48.7395 19.4521 49.4393 20.318 49.8222C21.1838 50.2069 22.147 50.2296 23.0303 49.8866C33.3961 45.8777 44.9565 52.9904 45.0678 53.06C45.6346 53.4204 46.2918 53.6119 46.9664 53.6119C47.641 53.6119 48.293 53.4221 48.8598 53.0653C48.9745 52.9921 60.5488 45.8812 70.9059 49.8866C71.7892 50.2278 72.7524 50.2052 73.62 49.8222C74.4858 49.4375 75.15 48.7395 75.4925 47.8552C75.8333 46.9709 75.8107 46.0065 75.4265 45.1396Z" fill="url(#paint1_linear_692_2777)" style=""/>
<defs>
<linearGradient id="paint0_linear_692_2777" x1="46.9681" y1="41.1881" x2="46.9681" y2="7.52704" gradientUnits="userSpaceOnUse">
<stop stop-color="#8F37EA" style="stop-color:#8F37EA;stop-color:color(display-p3 0.5608 0.2157 0.9176);stop-opacity:1;"/>
<stop offset="0.63" stop-color="#5A66F1" style="stop-color:#5A66F1;stop-color:color(display-p3 0.3529 0.4000 0.9451);stop-opacity:1;"/>
<stop offset="1" stop-color="#407FF6" style="stop-color:#407FF6;stop-color:color(display-p3 0.2510 0.4980 0.9647);stop-opacity:1;"/>
</linearGradient>
<linearGradient id="paint1_linear_692_2777" x1="46.9681" y1="53.6119" x2="46.9681" y2="41.538" gradientUnits="userSpaceOnUse">
<stop stop-color="#8F37EA" style="stop-color:#8F37EA;stop-color:color(display-p3 0.5608 0.2157 0.9176);stop-opacity:1;"/>
<stop offset="0.63" stop-color="#5A66F1" style="stop-color:#5A66F1;stop-color:color(display-p3 0.3529 0.4000 0.9451);stop-opacity:1;"/>
<stop offset="1" stop-color="#407FF6" style="stop-color:#407FF6;stop-color:color(display-p3 0.2510 0.4980 0.9647);stop-opacity:1;"/>
</linearGradient>
</defs>
</svg>
